<?xml version="1.0" encoding="utf-8"?>
<!-- Generator: Adobe Illustrator 16.0.0, SVG Export Plug-In . SVG Version: 6.00 Build 0)  -->
<!DOCTYPE svg PUBLIC "-//W3C//DTD SVG 1.1//EN" "http://www.w3.org/Graphics/SVG/1.1/DTD/svg11.dtd">
<svg version="1.1" id="Layer_1" xmlns="http://www.w3.org/2000/svg" xmlns:xlink="http://www.w3.org/1999/xlink" x="0px" y="0px"
	 width="570.621px" height="516.404px" viewBox="20.69 78.526 570.621 516.404"
	 enable-background="new 20.69 78.526 570.621 516.404" xml:space="preserve">
<title>logo</title>
<path fill="#FF5574" d="M391.603,279.347V594.93H49.232c-15.796-0.038-28.573-12.867-28.542-28.663c0-0.006,0-0.015,0-0.021V279.347
	H391.603z"/>
<path fill="#FFC043" d="M591.312,279.347v286.899c0.044,15.795-12.727,28.64-28.523,28.684l0,0H448.666V279.347H591.312z"/>
<path fill="#6168FF" d="M562.787,78.526c15.798,0.044,28.567,12.884,28.523,28.681l0,0v114.76H20.69v-114.76
	C20.647,91.411,33.413,78.571,49.21,78.526c0.007,0,0.015,0,0.021,0H562.787z"/>
</svg>
